<svg width="100" height="100" viewBox="0 0 100 100" fill="none" xmlns="http://www.w3.org/2000/svg">
  <rect width="100" height="100" rx="20" fill="#e67e22"/>
  <path d="M30 25C30 22.2386 32.2386 20 35 20H65C67.7614 20 70 22.2386 70 25V75C70 77.7614 67.7614 80 65 80H35C32.2386 80 30 77.7614 30 75V25Z" fill="white"/>
  <rect x="37" y="30" width="26" height="5" rx="2.5" fill="#e67e22"/>
  <rect x="37" y="40" width="26" height="5" rx="2.5" fill="#e67e22"/>
  <rect x="37" y="50" width="26" height="5" rx="2.5" fill="#e67e22"/>
  <path d="M50 65C54.4183 65 58 61.4183 58 57C58 52.5817 54.4183 49 50 49C45.5817 49 42 52.5817 42 57C42 61.4183 45.5817 65 50 65Z" fill="#e67e22"/>
</svg>